HIERARCHY
ROOT Hips
{
	OFFSET 0.00000 0.00000 0.00000
	CHANNELS 6 Xposition Yposition Zposition Zrotation Yrotation Xrotation 
	JOINT LHipJoint
	{
		OFFSET 0 0 0
		CHANNELS 3 Zrotation Yrotation Xrotation
		JOINT LeftHip
		{
			OFFSET 1.75344 -1.53157 0.77399
			CHANNELS 3 Zrotation Yrotation Xrotation
			JOINT LeftKnee
			{
				OFFSET 2.25415 -6.19323 0.00000
				CHANNELS 3 Zrotation Yrotation Xrotation
				JOINT LeftAnkle
				{
					OFFSET 2.30342 -6.32861 0.00000
					CHANNELS 3 Zrotation Yrotation Xrotation
					JOINT LeftToe
					{
						OFFSET 0.10958 -0.30108 1.49206
						CHANNELS 3 Zrotation Yrotation Xrotation
						End Site
						{
							OFFSET 0.00000 -0.00000 0.77783
						}
					}
				}
			}
		}
	}
	JOINT RHipJoint
	{
		OFFSET 0 0 0
		CHANNELS 3 Zrotation Yrotation Xrotation
		JOINT RightHip
		{
			OFFSET -1.81912 -1.53156 0.77399
			CHANNELS 3 Zrotation Yrotation Xrotation
			JOINT RightKnee
			{
				OFFSET -2.22882 -6.12365 0.00000
				CHANNELS 3 Zrotation Yrotation Xrotation
				JOINT RightAnkle
				{
					OFFSET -2.21943 -6.09785 0.00000
					CHANNELS 3 Zrotation Yrotation Xrotation
					JOINT RightToe
					{
						OFFSET -0.18931 -0.52012 1.59379
						CHANNELS 3 Zrotation Yrotation Xrotation
						End Site
						{
							OFFSET -0.00000 -0.00000 0.84686
						}
					}
				}
			}
		}
	}
	JOINT lowerback
	{
		OFFSET 0 0 0
		CHANNELS 3 Zrotation Yrotation Xrotation
		JOINT Chest
		{
			OFFSET -0.00200 1.66634 -0.14248
			CHANNELS 3 Zrotation Yrotation Xrotation
			JOINT Chest2
			{
				OFFSET -0.00875 1.64542 0.09514
				CHANNELS 3 Zrotation Yrotation Xrotation
				JOINT lowerneck
				{
					OFFSET 0 0 0
					CHANNELS 3 Zrotation Yrotation Xrotation
					JOINT Neck
					{
						OFFSET 0.02257 1.59605 0.00839
						CHANNELS 3 Zrotation Yrotation Xrotation
						JOINT Head
						{
							OFFSET -0.10214 1.57530 -0.23335
							CHANNELS 3 Zrotation Yrotation Xrotation
							End Site
							{
								OFFSET -0.03588 1.60717 -0.08062
							}
						}
					}
				}
				JOINT LeftCollar
				{
					OFFSET 0 0 0
					CHANNELS 3 Zrotation Yrotation Xrotation
					JOINT LeftShoulder
					{
						OFFSET 2.54983 1.10186 0.40078
CHANNELS 3 Zrotation Xrotation Yrotation
						JOINT LeftElbow
						{
OFFSET 0 -4.288400 0.000000
CHANNELS 3 Zrotation Xrotation Yrotation
							JOINT LeftWrist
							{
OFFSET 0 -3.065520 -0.000000
CHANNELS 3 Zrotation Xrotation Yrotation
								JOINT lhand
								{
									OFFSET 0 0 0
CHANNELS 3 Zrotation Xrotation Yrotation
									JOINT LFingers
									{
OFFSET 0 -0.753040 0.000000
CHANNELS 3 Zrotation Xrotation Yrotation
										End Site
										{
OFFSET 0 -0.607120 0.000000
										}
									}
								}
								JOINT LThumb
								{
OFFSET 0 0.000000 0.000000
CHANNELS 3 Zrotation Xrotation Yrotation
									End Site
									{
OFFSET 0 -0.616390 0.616390
									}
								}
							}
						}
					}
				}
				JOINT RightCollar
				{
					OFFSET 0 0 0
					CHANNELS 3 Zrotation Yrotation Xrotation
					JOINT RightShoulder
					{
						OFFSET -2.60909 1.35448 0.21802
CHANNELS 3 Zrotation Xrotation Yrotation
						JOINT RightElbow
						{
OFFSET 0 -4.521720 -0.000000
CHANNELS 3 Zrotation Xrotation Yrotation
							JOINT RightWrist
							{
OFFSET 0 -2.891400 0.000000
CHANNELS 3 Zrotation Xrotation Yrotation
								JOINT rhand
								{
									OFFSET 0 0 0
CHANNELS 3 Zrotation Xrotation Yrotation
									JOINT RFingers
									{
OFFSET 0 -0.680540 0.000000
CHANNELS 3 Zrotation Xrotation Yrotation
										End Site
										{
OFFSET 0 -0.548670 0.000000
										}
									}
								}
								JOINT RThumb
								{
OFFSET 0 0.000000 0.000000
CHANNELS 3 Zrotation Xrotation Yrotation
									End Site
									{
OFFSET 0 -0.557050 0.557050
									}
								}
							}
						}
					}
				}
			}
		}
	}
}
MOTION
Frames: 8
Frame Time: 0.008333333333333333
8.798400 15.512100 22.538700 -179.116000 8.215900 179.479000 0.000000 0.000000 0.000000 -26.366400 -21.268400 5.017500 1.335000 7.316100 20.655300 0.722600 15.422700 -28.041200 2.385300 -9.626200 -27.774600 0.000000 0.000000 0.000000 27.005100 18.329300 7.350200 -0.657900 -5.187700 14.444800 1.018900 -21.981400 -22.491700 -0.051800 1.469000 -4.040200 0.895300 0.966000 7.826300 0.915000 1.553900 -4.269700 0.222600 0.766000 -8.925300 -6.957600 -0.449500 -6.276400 5.955200 -0.354100 10.852700 2.960900 -0.046600 4.291300 -0.000000 -0.000000 0.000000 -1.397300 9.612600 -9.584400 22.122800 -33.115500 6.652800 -38.906000 15.896200 23.819500 0.000000 0.000000 0.000000 -7.125000 0.000000 0.000000 -36.980000 2.547700 -46.833200 -0.000000 -0.000000 0.000000 -6.009100 12.962100 42.203700 -22.227500 -33.233200 -6.710100 -19.445500 30.462500 44.919000 0.000000 0.000000 0.000000 7.125000 0.000000 -0.000000 34.290000 74.261400 -24.382700
8.800112 15.510233 22.534655 -179.086437 7.908449 179.503117 0.000000 0.000000 0.000000 -26.312098 -21.312199 4.952229 1.342546 7.335938 20.714581 0.641614 15.637807 -27.676569 2.753043 -10.276033 -29.882958 0.000000 0.000000 0.000000 27.038397 18.179153 7.398356 -0.646853 -5.144990 14.322660 1.001240 -22.018587 -22.763131 -0.028461 1.068038 -2.936115 1.000870 0.880191 7.729132 0.916712 1.448253 -4.228857 0.183391 0.708820 -8.821286 -7.051422 -0.475717 -6.264419 5.979706 -0.386774 10.666456 2.980038 -0.068539 4.235053 0.000000 0.000000 0.000000 -1.547914 10.313701 -12.688629 20.056374 -30.687399 5.570886 -8.597562 12.277504 36.927714 0.000000 0.000000 0.000000 -7.125000 0.000000 0.000000 -22.202743 -6.410003 -27.183248 0.000000 0.000000 0.000000 -6.158313 12.960388 42.354236 -22.214741 -33.218808 -6.703098 -17.755453 29.335309 45.946456 0.000000 0.000000 0.000000 7.125000 0.000000 0.000000 38.838362 74.360824 -27.923444
8.802601 15.512646 22.531888 -179.055207 7.917598 179.662324 0.000000 0.000000 0.000000 -26.226053 -21.397248 4.794563 1.344200 7.340377 20.727775 0.609272 15.795097 -27.609858 2.879681 -10.497580 -30.603724 0.000000 0.000000 0.000000 27.021660 18.211850 7.291464 -0.636862 -5.105838 14.210749 1.007652 -22.015524 -22.686886 -0.026970 1.056057 -2.903077 1.037560 0.887110 7.529452 0.922148 1.461518 -4.237825 0.169976 0.715237 -8.712881 -7.078867 -0.486258 -6.274731 6.013607 -0.402771 10.595121 2.993450 -0.076801 4.216165 0.000000 0.000000 0.000000 -1.508345 10.551269 -13.613904 19.291094 -29.778311 5.174875 -0.313989 11.807464 40.914397 0.000000 0.000000 0.000000 -7.125000 0.000000 0.000000 -18.175438 -9.167623 -21.880037 0.000000 0.000000 0.000000 -6.256715 12.929324 42.462799 -22.175910 -33.175229 -6.681865 -16.456833 28.531556 46.688889 0.000000 0.000000 0.000000 7.125000 0.000000 0.000000 42.213330 74.377136 -30.547243
8.805869 15.515801 22.529298 -179.022643 8.015701 179.821730 0.000000 0.000000 0.000000 -26.144992 -21.500008 4.662164 1.343199 7.337831 20.720159 0.602601 15.894738 -27.670785 2.893494 -10.520590 -30.679635 0.000000 0.000000 0.000000 27.014490 18.299278 7.189658 -0.627827 -5.070176 14.108899 1.030523 -22.043231 -22.494851 -0.033471 1.179369 -3.242557 1.043668 0.911065 7.327058 0.929973 1.494330 -4.250627 0.173242 0.733099 -8.607963 -7.101904 -0.488700 -6.295049 6.089424 -0.410905 10.587845 3.020368 -0.077398 4.217807 0.000000 0.000000 0.000000 -1.385706 10.649647 -13.960893 19.158880 -29.615617 5.109140 -0.276549 12.211558 40.496343 0.000000 0.000000 0.000000 -7.125000 0.000000 0.000000 -18.137116 -8.773375 -21.726371 0.000000 0.000000 0.000000 -6.327410 12.857020 42.545484 -22.098551 -33.088141 -6.639622 -15.466770 27.985131 47.183426 0.000000 0.000000 0.000000 7.125000 0.000000 0.000000 44.582684 74.324862 -32.361843
8.809737 15.517657 22.526219 -178.994224 8.045166 179.901474 0.000000 0.000000 0.000000 -26.094257 -21.601547 4.623135 1.341251 7.332720 20.704972 0.606494 15.927792 -27.736994 2.879621 -10.497502 -30.603471 0.000000 0.000000 0.000000 27.043230 18.351768 7.181753 -0.620051 -5.039394 14.021039 1.058672 -22.126038 -22.360425 -0.037473 1.249461 -3.435491 1.063956 0.917133 7.184683 0.911929 1.500734 -4.236220 0.144576 0.735375 -8.507725 -7.103647 -0.504002 -6.332681 6.202666 -0.441275 10.602848 3.054499 -0.085366 4.230510 0.000000 0.000000 0.000000 -1.198173 10.780238 -14.712543 19.152597 -29.607862 5.106061 0.379111 12.178068 39.199190 0.000000 0.000000 0.000000 -7.125000 0.000000 0.000000 -17.756180 -7.597733 -20.913466 0.000000 0.000000 0.000000 -6.334043 12.748245 42.553273 -21.975580 -32.949270 -6.572589 -14.684059 27.637608 47.471705 0.000000 0.000000 0.000000 7.125000 0.000000 0.000000 46.149358 74.209812 -33.503256
8.813471 15.519447 22.522874 -178.995780 7.962857 179.932593 0.000000 0.000000 0.000000 -26.084221 -21.686034 4.647718 1.336038 7.318950 20.663740 0.623843 15.838015 -27.766168 2.831776 -10.417527 -30.339663 0.000000 0.000000 0.000000 27.051788 18.341110 7.202291 -0.615539 -5.021267 13.969149 1.064040 -22.165948 -22.386331 -0.032416 1.161551 -3.193389 1.193021 0.975091 7.096929 0.732686 1.571217 -4.186975 -0.124754 0.755368 -8.393831 -6.803509 -0.610427 -6.464702 6.236507 -0.613594 10.606660 3.006498 -0.154683 4.264663 0.000000 0.000000 0.000000 -0.680516 10.738773 -15.561379 18.998171 -29.416327 5.029976 0.355539 12.575685 38.699037 0.000000 0.000000 0.000000 -7.125000 0.000000 0.000000 -17.747000 -7.119441 -20.772732 0.000000 0.000000 0.000000 -6.017879 12.656057 42.187241 -21.803651 -32.754312 -6.479311 -13.930524 27.459610 47.593456 0.000000 0.000000 0.000000 7.125000 0.000000 0.000000 47.188873 74.001240 -34.144220
8.815202 15.523840 22.520130 -179.040741 7.848228 180.074563 0.000000 0.000000 0.000000 -26.111381 -21.908284 4.591233 1.330559 7.304579 20.620838 0.628771 15.822429 -27.785125 2.749674 -10.277786 -29.881532 0.000000 0.000000 0.000000 26.952699 18.351620 7.057354 -0.612095 -5.007415 13.929613 1.080827 -22.249530 -22.381119 -0.034238 1.193574 -3.281571 1.464856 1.190979 7.061662 0.269170 1.848913 -4.195025 -0.804302 0.858701 -8.353660 -5.864973 -0.907904 -6.840261 6.109080 -1.086881 10.752375 2.786545 -0.349008 4.397513 0.000000 0.000000 0.000000 0.458242 10.610162 -17.005673 18.785649 -29.151137 4.926178 0.167559 13.071599 38.630003 0.000000 0.000000 0.000000 -7.125000 0.000000 0.000000 -17.838455 -7.037076 -20.868259 0.000000 0.000000 0.000000 -5.088893 12.651013 41.146619 -21.598198 -32.519622 -6.368604 -13.295252 27.601345 47.517612 0.000000 0.000000 0.000000 7.125000 0.000000 0.000000 47.547920 73.719747 -34.172429
8.818207 15.526123 22.521273 -179.099105 7.772796 180.159047 0.000000 0.000000 0.000000 -26.130369 -21.992842 4.526231 1.324902 7.289663 20.576369 0.622734 15.815116 -27.732191 2.742421 -10.265695 -29.841671 0.000000 0.000000 0.000000 26.868968 18.357734 6.949210 -0.610165 -4.999571 13.907270 1.101682 -22.350526 -22.368543 -0.041740 1.313897 -3.613021 1.501539 1.291848 6.998416 0.067113 1.968104 -4.171565 -1.052349 0.907898 -8.281614 -5.445142 -1.067389 -7.009420 6.030908 -1.332532 10.785196 2.679252 -0.454707 4.449254 0.000000 0.000000 0.000000 1.048966 10.581684 -17.942766 18.664189 -28.999314 4.867018 0.312033 13.397635 38.665757 0.000000 0.000000 0.000000 -7.125000 0.000000 0.000000 -17.767370 -7.084181 -20.789570 0.000000 0.000000 0.000000 -4.730437 12.589699 40.689156 -21.424122 -32.319874 -6.275214 -12.916229 27.696613 47.494835 0.000000 0.000000 0.000000 7.125000 0.000000 0.000000 47.823262 73.565516 -34.249794
